<svg width="2988" height="1867" xmlns="http://www.w3.org/2000/svg" xmlns:xlink="http://www.w3.org/1999/xlink" xml:space="preserve" overflow="hidden"><defs><clipPath id="clip0"><rect x="667" y="250" width="2988" height="1867"/></clipPath></defs><g clip-path="url(#clip0)" transform="translate(-667 -250)"><rect x="667" y="1861" width="1039" height="234" fill="#F6C6AD"/><rect x="1706" y="1523" width="1949" height="572" fill="#F6C6AD"/><rect x="1706" y="250" width="1949" height="1247" fill="#8ED973"/><rect x="667" y="250" width="987" height="1559" fill="#83CBEB"/><path d="M0 3.4375-82.4986 3.4375-79.0611 0-79.0611 195.112-82.4986 191.674 2030.43 191.674 2030.43 314.916 2023.56 314.916 2023.56 195.112 2027 198.549-85.9361 198.549-85.9361-3.4375 0-3.4375ZM2040.75 310.333 2027 337.833 2013.25 310.333Z" transform="matrix(-1 0 0 1 3447.5 1341.5)"/><rect x="719.5" y="276.5" width="364" height="104" stroke="#024059" stroke-width="6.875" stroke-miterlimit="8" fill="#0F9ED5"/><text fill="#FFFFFF" font-family="Source Han Sans CN,Source Han Sans CN_MSFontService,sans-serif" font-weight="400" font-size="83" transform="matrix(1 0 0 1 824.537 357)">GVA</text><path d="M1264.5 493.167C1264.5 474.021 1280.02 458.5 1299.17 458.5L1541.83 458.5C1560.98 458.5 1576.5 474.021 1576.5 493.167L1576.5 631.833C1576.5 650.979 1560.98 666.5 1541.83 666.5L1299.17 666.5C1280.02 666.5 1264.5 650.979 1264.5 631.833Z" stroke="#000000" stroke-width="6.875" stroke-miterlimit="8" fill="#FFFFFF" fill-rule="evenodd"/><text font-family="Source Han Sans CN,Source Han Sans CN_MSFontService,sans-serif" font-weight="400" font-size="83" transform="matrix(1 0 0 1 1312.23 591)">VS</text><text font-family="Source Han Sans CN,Source Han Sans CN_MSFontService,sans-serif" font-weight="400" font-size="83" transform="matrix(1 0 0 1 1409.37 591)">-</text><text font-family="Source Han Sans CN,Source Han Sans CN_MSFontService,sans-serif" font-weight="400" font-size="83" transform="matrix(1 0 0 1 1438.02 591)">L2</text><path d="M1264.5 883.167C1264.5 864.021 1280.02 848.5 1299.17 848.5L1541.83 848.5C1560.98 848.5 1576.5 864.021 1576.5 883.167L1576.5 1021.83C1576.5 1040.98 1560.98 1056.5 1541.83 1056.5L1299.17 1056.5C1280.02 1056.5 1264.5 1040.98 1264.5 1021.83Z" stroke="#000000" stroke-width="6.875" stroke-miterlimit="8" fill="#FFFFFF" fill-rule="evenodd"/><text font-family="Source Han Sans CN,Source Han Sans CN_MSFontService,sans-serif" font-weight="400" font-size="83" transform="matrix(1 0 0 1 1312.23 981)">VS</text><text font-family="Source Han Sans CN,Source Han Sans CN_MSFontService,sans-serif" font-weight="400" font-size="83" transform="matrix(1 0 0 1 1409.37 981)">-</text><text font-family="Source Han Sans CN,Source Han Sans CN_MSFontService,sans-serif" font-weight="400" font-size="83" transform="matrix(1 0 0 1 1438.02 981)">L1</text><path d="M1264.5 1273C1264.5 1253.95 1279.95 1238.5 1299 1238.5L1542 1238.5C1561.05 1238.5 1576.5 1253.95 1576.5 1273L1576.5 1411C1576.5 1430.05 1561.05 1445.5 1542 1445.5L1299 1445.5C1279.95 1445.5 1264.5 1430.05 1264.5 1411Z" stroke="#000000" stroke-width="6.875" stroke-miterlimit="8" fill="#FFFFFF" fill-rule="evenodd"/><text font-family="Source Han Sans CN,Source Han Sans CN_MSFontService,sans-serif" font-weight="400" font-size="83" transform="matrix(1 0 0 1 1312.23 1371)">VS</text><text font-family="Source Han Sans CN,Source Han Sans CN_MSFontService,sans-serif" font-weight="400" font-size="83" transform="matrix(1 0 0 1 1409.37 1371)">-</text><text font-family="Source Han Sans CN,Source Han Sans CN_MSFontService,sans-serif" font-weight="400" font-size="83" transform="matrix(1 0 0 1 1438.02 1371)">L0</text><path d="M2096.5 493.167C2096.5 474.021 2112.02 458.5 2131.17 458.5L2373.83 458.5C2392.98 458.5 2408.5 474.021 2408.5 493.167L2408.5 631.833C2408.5 650.979 2392.98 666.5 2373.83 666.5L2131.17 666.5C2112.02 666.5 2096.5 650.979 2096.5 631.833Z" stroke="#000000" stroke-width="6.875" stroke-miterlimit="8" fill="#FFFFFF" fill-rule="evenodd"/><text font-family="Source Han Sans CN,Source Han Sans CN_MSFontService,sans-serif" font-weight="400" font-size="83" transform="matrix(1 0 0 1 2164.03 591)">G</text><text font-family="Source Han Sans CN,Source Han Sans CN_MSFontService,sans-serif" font-weight="400" font-size="83" transform="matrix(1 0 0 1 2220.75 591)">-</text><text font-family="Source Han Sans CN,Source Han Sans CN_MSFontService,sans-serif" font-weight="400" font-size="83" transform="matrix(1 0 0 1 2249.4 591)">L2</text><path d="M2616.5 493.167C2616.5 474.021 2632.02 458.5 2651.17 458.5L2893.83 458.5C2912.98 458.5 2928.5 474.021 2928.5 493.167L2928.5 631.833C2928.5 650.979 2912.98 666.5 2893.83 666.5L2651.17 666.5C2632.02 666.5 2616.5 650.979 2616.5 631.833Z" stroke="#000000" stroke-width="6.875" stroke-miterlimit="8" fill="#FFFFFF" fill-rule="evenodd"/><text font-family="Source Han Sans CN,Source Han Sans CN_MSFontService,sans-serif" font-weight="400" font-size="83" transform="matrix(1 0 0 1 2683.77 591)">G</text><text font-family="Source Han Sans CN,Source Han Sans CN_MSFontService,sans-serif" font-weight="400" font-size="83" transform="matrix(1 0 0 1 2740.49 591)">-</text><text font-family="Source Han Sans CN,Source Han Sans CN_MSFontService,sans-serif" font-weight="400" font-size="83" transform="matrix(1 0 0 1 2769.14 591)">L1</text><path d="M3136.5 493.168C3136.5 474.021 3152.02 458.5 3171.17 458.5L3412.83 458.5C3431.98 458.5 3447.5 474.021 3447.5 493.168L3447.5 631.833C3447.5 650.979 3431.98 666.5 3412.83 666.5L3171.17 666.5C3152.02 666.5 3136.5 650.979 3136.5 631.833Z" stroke="#000000" stroke-width="6.875" stroke-miterlimit="8" fill="#FFFFFF" fill-rule="evenodd"/><text font-family="Source Han Sans CN,Source Han Sans CN_MSFontService,sans-serif" font-weight="400" font-size="83" transform="matrix(1 0 0 1 3203.52 591)">G</text><text font-family="Source Han Sans CN,Source Han Sans CN_MSFontService,sans-serif" font-weight="400" font-size="83" transform="matrix(1 0 0 1 3260.24 591)">-</text><text font-family="Source Han Sans CN,Source Han Sans CN_MSFontService,sans-serif" font-weight="400" font-size="83" transform="matrix(1 0 0 1 3288.88 591)">L0</text><path d="M2096.5 883.167C2096.5 864.021 2112.02 848.5 2131.17 848.5L2373.83 848.5C2392.98 848.5 2408.5 864.021 2408.5 883.167L2408.5 1021.83C2408.5 1040.98 2392.98 1056.5 2373.83 1056.5L2131.17 1056.5C2112.02 1056.5 2096.5 1040.98 2096.5 1021.83Z" stroke="#000000" stroke-width="6.875" stroke-miterlimit="8" fill="#FFFFFF" fill-rule="evenodd"/><text font-family="Source Han Sans CN,Source Han Sans CN_MSFontService,sans-serif" font-weight="400" font-size="83" transform="matrix(1 0 0 1 2164.03 981)">G</text><text font-family="Source Han Sans CN,Source Han Sans CN_MSFontService,sans-serif" font-weight="400" font-size="83" transform="matrix(1 0 0 1 2220.75 981)">-</text><text font-family="Source Han Sans CN,Source Han Sans CN_MSFontService,sans-serif" font-weight="400" font-size="83" transform="matrix(1 0 0 1 2249.4 981)">L2</text><path d="M2616.5 883.167C2616.5 864.021 2632.02 848.5 2651.17 848.5L2893.83 848.5C2912.98 848.5 2928.5 864.021 2928.5 883.167L2928.5 1021.83C2928.5 1040.98 2912.98 1056.5 2893.83 1056.5L2651.17 1056.5C2632.02 1056.5 2616.5 1040.98 2616.5 1021.83Z" stroke="#000000" stroke-width="6.875" stroke-miterlimit="8" fill="#FFFFFF" fill-rule="evenodd"/><text font-family="Source Han Sans CN,Source Han Sans CN_MSFontService,sans-serif" font-weight="400" font-size="83" transform="matrix(1 0 0 1 2683.77 981)">G</text><text font-family="Source Han Sans CN,Source Han Sans CN_MSFontService,sans-serif" font-weight="400" font-size="83" transform="matrix(1 0 0 1 2740.49 981)">-</text><text font-family="Source Han Sans CN,Source Han Sans CN_MSFontService,sans-serif" font-weight="400" font-size="83" transform="matrix(1 0 0 1 2769.14 981)">L1</text><path d="M3136.5 883.167C3136.5 864.021 3152.02 848.5 3171.17 848.5L3412.83 848.5C3431.98 848.5 3447.5 864.021 3447.5 883.167L3447.5 1021.83C3447.5 1040.98 3431.98 1056.5 3412.83 1056.5L3171.17 1056.5C3152.02 1056.5 3136.5 1040.98 3136.5 1021.83Z" stroke="#000000" stroke-width="6.875" stroke-miterlimit="8" fill="#FFFFFF" fill-rule="evenodd"/><text font-family="Source Han Sans CN,Source Han Sans CN_MSFontService,sans-serif" font-weight="400" font-size="83" transform="matrix(1 0 0 1 3203.52 981)">G</text><text font-family="Source Han Sans CN,Source Han Sans CN_MSFontService,sans-serif" font-weight="400" font-size="83" transform="matrix(1 0 0 1 3260.24 981)">-</text><text font-family="Source Han Sans CN,Source Han Sans CN_MSFontService,sans-serif" font-weight="400" font-size="83" transform="matrix(1 0 0 1 3288.88 981)">L0</text><path d="M2096.5 1273C2096.5 1253.95 2111.95 1238.5 2131 1238.5L2374 1238.5C2393.05 1238.5 2408.5 1253.95 2408.5 1273L2408.5 1411C2408.5 1430.05 2393.05 1445.5 2374 1445.5L2131 1445.5C2111.95 1445.5 2096.5 1430.05 2096.5 1411Z" stroke="#000000" stroke-width="6.875" stroke-miterlimit="8" fill="#FFFFFF" fill-rule="evenodd"/><text font-family="Source Han Sans CN,Source Han Sans CN_MSFontService,sans-serif" font-weight="400" font-size="83" transform="matrix(1 0 0 1 2164.03 1371)">G</text><text font-family="Source Han Sans CN,Source Han Sans CN_MSFontService,sans-serif" font-weight="400" font-size="83" transform="matrix(1 0 0 1 2220.75 1371)">-</text><text font-family="Source Han Sans CN,Source Han Sans CN_MSFontService,sans-serif" font-weight="400" font-size="83" transform="matrix(1 0 0 1 2249.4 1371)">L2</text><path d="M2616.5 1273C2616.5 1253.95 2631.95 1238.5 2651 1238.5L2894 1238.5C2913.05 1238.5 2928.5 1253.95 2928.5 1273L2928.5 1411C2928.5 1430.05 2913.05 1445.5 2894 1445.5L2651 1445.5C2631.95 1445.5 2616.5 1430.05 2616.5 1411Z" stroke="#000000" stroke-width="6.875" stroke-miterlimit="8" fill="#FFFFFF" fill-rule="evenodd"/><text font-family="Source Han Sans CN,Source Han Sans CN_MSFontService,sans-serif" font-weight="400" font-size="83" transform="matrix(1 0 0 1 2683.77 1371)">G</text><text font-family="Source Han Sans CN,Source Han Sans CN_MSFontService,sans-serif" font-weight="400" font-size="83" transform="matrix(1 0 0 1 2740.49 1371)">-</text><text font-family="Source Han Sans CN,Source Han Sans CN_MSFontService,sans-serif" font-weight="400" font-size="83" transform="matrix(1 0 0 1 2769.14 1371)">L1</text><path d="M3136.5 1273C3136.5 1253.95 3151.95 1238.5 3171 1238.5L3413 1238.5C3432.05 1238.5 3447.5 1253.95 3447.5 1273L3447.5 1411C3447.5 1430.05 3432.05 1445.5 3413 1445.5L3171 1445.5C3151.95 1445.5 3136.5 1430.05 3136.5 1411Z" stroke="#000000" stroke-width="6.875" stroke-miterlimit="8" fill="#FFFFFF" fill-rule="evenodd"/><text font-family="Source Han Sans CN,Source Han Sans CN_MSFontService,sans-serif" font-weight="400" font-size="83" transform="matrix(1 0 0 1 3203.52 1371)">G</text><text font-family="Source Han Sans CN,Source Han Sans CN_MSFontService,sans-serif" font-weight="400" font-size="83" transform="matrix(1 0 0 1 3260.24 1371)">-</text><text font-family="Source Han Sans CN,Source Han Sans CN_MSFontService,sans-serif" font-weight="400" font-size="83" transform="matrix(1 0 0 1 3288.88 1371)">L0</text><path d="M1423.94 380.5 1423.94 435.545 1417.06 435.545 1417.06 380.5ZM1434.25 430.961 1420.5 458.461 1406.75 430.962Z"/><text font-family="Source Han Sans CN,Source Han Sans CN_MSFontService,sans-serif" font-weight="400" font-size="83" transform="matrix(1 0 0 1 1316.16 357)">vsatp</text><path d="M1576.5 559.062 2073.33 559.063 2073.33 565.938 1576.5 565.937ZM2068.74 548.75 2096.24 562.5 2068.74 576.25Z"/><path d="M1576.5 949.063 2073.33 949.063 2073.33 955.938 1576.5 955.938ZM2068.74 938.75 2096.24 952.5 2068.74 966.25Z"/><path d="M1576.5 1338.06 2073.33 1338.06 2073.33 1344.94 1576.5 1344.94ZM2068.74 1327.75 2096.24 1341.5 2068.74 1355.25Z"/><path d="M2408.5 1338.06 2593.48 1338.06 2593.48 1344.94 2408.5 1344.94ZM2588.9 1327.75 2616.4 1341.5 2588.9 1355.25Z"/><path d="M2408.5 949.063 2593.48 949.063 2593.48 955.938 2408.5 955.938ZM2588.9 938.75 2616.4 952.5 2588.9 966.25Z"/><path d="M2408.5 559.062 2593.48 559.063 2593.48 565.938 2408.5 565.937ZM2588.9 548.75 2616.4 562.5 2588.9 576.25Z"/><path d="M2928.5 1338.06 3113.48 1338.06 3113.48 1344.94 2928.5 1344.94ZM3108.9 1327.75 3136.4 1341.5 3108.9 1355.25Z"/><path d="M2928.5 949.063 3113.48 949.063 3113.48 955.938 2928.5 955.938ZM3108.9 938.75 3136.4 952.5 3108.9 966.25Z"/><path d="M2928.5 559.062 3113.48 559.063 3113.48 565.938 2928.5 565.937ZM3108.9 548.75 3136.4 562.5 3108.9 576.25Z"/><path d="M0 3.4375-82.4986 3.4375-79.0611 0-79.0611 194.905-82.4986 191.467 2030.43 191.467 2030.43 262.942 2023.56 262.942 2023.56 194.905 2027 198.342-85.9361 198.342-85.9361-3.4375 0-3.4375ZM2040.75 258.359 2027 285.859 2013.25 258.359Z" transform="matrix(-1 0 0 1 3447.5 952.5)"/><path d="M0 3.4375-82.4986 3.4375-79.0611 0-79.0611 194.905-82.4986 191.467 2030.43 191.467 2030.43 262.942 2023.56 262.942 2023.56 194.905 2027 198.342-85.9361 198.342-85.9361-3.4375 0-3.4375ZM2040.75 258.359 2027 285.859 2013.25 258.359Z" transform="matrix(-1 0 0 1 3447.5 562.5)"/><rect x="1238.5" y="1679.5" width="364" height="104" stroke="#024059" stroke-width="6.875" stroke-miterlimit="8" fill="#0F9ED5"/><text fill="#FFFFFF" font-family="Source Han Sans CN,Source Han Sans CN_MSFontService,sans-serif" font-weight="400" font-size="83" transform="matrix(1 0 0 1 1343.06 1761)">GPA</text><path d="M2096.5 1662.17C2096.5 1643.02 2112.02 1627.5 2131.17 1627.5L2373.83 1627.5C2392.98 1627.5 2408.5 1643.02 2408.5 1662.17L2408.5 1800.83C2408.5 1819.98 2392.98 1835.5 2373.83 1835.5L2131.17 1835.5C2112.02 1835.5 2096.5 1819.98 2096.5 1800.83Z" stroke="#000000" stroke-width="6.875" stroke-miterlimit="8" fill="#FFFFFF" fill-rule="evenodd"/><text font-family="Source Han Sans CN,Source Han Sans CN_MSFontService,sans-serif" font-weight="400" font-size="83" transform="matrix(1 0 0 1 2164.03 1761)">G</text><text font-family="Source Han Sans CN,Source Han Sans CN_MSFontService,sans-serif" font-weight="400" font-size="83" transform="matrix(1 0 0 1 2220.75 1761)">-</text><text font-family="Source Han Sans CN,Source Han Sans CN_MSFontService,sans-serif" font-weight="400" font-size="83" transform="matrix(1 0 0 1 2249.4 1761)">L2</text><path d="M2616.5 1662.17C2616.5 1643.02 2632.02 1627.5 2651.17 1627.5L2893.83 1627.5C2912.98 1627.5 2928.5 1643.02 2928.5 1662.17L2928.5 1800.83C2928.5 1819.98 2912.98 1835.5 2893.83 1835.5L2651.17 1835.5C2632.02 1835.5 2616.5 1819.98 2616.5 1800.83Z" stroke="#000000" stroke-width="6.875" stroke-miterlimit="8" fill="#FFFFFF" fill-rule="evenodd"/><text font-family="Source Han Sans CN,Source Han Sans CN_MSFontService,sans-serif" font-weight="400" font-size="83" transform="matrix(1 0 0 1 2683.77 1761)">G</text><text font-family="Source Han Sans CN,Source Han Sans CN_MSFontService,sans-serif" font-weight="400" font-size="83" transform="matrix(1 0 0 1 2740.49 1761)">-</text><text font-family="Source Han Sans CN,Source Han Sans CN_MSFontService,sans-serif" font-weight="400" font-size="83" transform="matrix(1 0 0 1 2769.14 1761)">L1</text><path d="M3136.5 1662.17C3136.5 1643.02 3152.02 1627.5 3171.17 1627.5L3412.83 1627.5C3431.98 1627.5 3447.5 1643.02 3447.5 1662.17L3447.5 1800.83C3447.5 1819.98 3431.98 1835.5 3412.83 1835.5L3171.17 1835.5C3152.02 1835.5 3136.5 1819.98 3136.5 1800.83Z" stroke="#000000" stroke-width="6.875" stroke-miterlimit="8" fill="#FFFFFF" fill-rule="evenodd"/><text font-family="Source Han Sans CN,Source Han Sans CN_MSFontService,sans-serif" font-weight="400" font-size="83" transform="matrix(1 0 0 1 3203.52 1761)">G</text><text font-family="Source Han Sans CN,Source Han Sans CN_MSFontService,sans-serif" font-weight="400" font-size="83" transform="matrix(1 0 0 1 3260.24 1761)">-</text><text font-family="Source Han Sans CN,Source Han Sans CN_MSFontService,sans-serif" font-weight="400" font-size="83" transform="matrix(1 0 0 1 3288.88 1761)">L0</text><path d="M1602.5 1728.06 2073.34 1728.06 2073.34 1734.94 1602.5 1734.94ZM2068.76 1717.75 2096.26 1731.5 2068.76 1745.25Z"/><path d="M2408.5 1728.06 2593.48 1728.06 2593.48 1734.94 2408.5 1734.94ZM2588.9 1717.75 2616.4 1731.5 2588.9 1745.25Z"/><path d="M2928.5 1728.06 3113.48 1728.06 3113.48 1734.94 2928.5 1734.94ZM3108.9 1717.75 3136.4 1731.5 3108.9 1745.25Z"/><path d="M1992.5 1235.06 2073.53 1235.06 2073.53 1241.94 1992.5 1241.94ZM2068.95 1224.75 2096.45 1238.5 2068.95 1252.25Z"/><text font-family="Source Han Sans CN,Source Han Sans CN_MSFontService,sans-serif" font-weight="400" font-size="83" transform="matrix(1 0 0 1 1738.25 1267)">hgatp</text><path d="M1992.5 845.062 2073.53 845.063 2073.53 851.938 1992.5 851.937ZM2068.95 834.75 2096.45 848.5 2068.95 862.25Z"/><text font-family="Source Han Sans CN,Source Han Sans CN_MSFontService,sans-serif" font-weight="400" font-size="83" transform="matrix(1 0 0 1 1738.25 877)">hgatp</text><path d="M1992.5 455.063 2073.53 455.063 2073.53 461.938 1992.5 461.938ZM2068.95 444.75 2096.45 458.5 2068.95 472.25Z"/><text font-family="Source Han Sans CN,Source Han Sans CN_MSFontService,sans-serif" font-weight="400" font-size="83" transform="matrix(1 0 0 1 1738.25 487)">hgatp</text><path d="M0-3.4375 185.347-3.4375 185.347 340.904 178.472 340.904 178.472 0 181.91 3.4375 0 3.4375ZM195.66 336.32 181.91 363.82 168.16 336.32Z" transform="matrix(1.83697e-16 1 1 -1.83697e-16 901.5 380.5)"/><path d="M0-3.4375 575.155-3.4375 575.155 340.904 568.28 340.904 568.28 0 571.717 3.4375 0 3.4375ZM585.467 336.32 571.717 363.82 557.967 336.32Z" transform="matrix(1.83697e-16 1 1 -1.83697e-16 901.5 380.5)"/><path d="M0-3.4375 964.962-3.4375 964.962 340.904 958.087 340.904 958.087 0 961.524 3.4375 0 3.4375ZM975.274 336.32 961.524 363.82 947.774 336.32Z" transform="matrix(1.83697e-16 1 1 -1.83697e-16 901.5 380.5)"/><path d="M0-3.4375 1354.77-3.4375 1354.77 314.916 1347.89 314.916 1347.89 0 1351.33 3.4375 0 3.4375ZM1365.08 310.333 1351.33 337.833 1337.58 310.333Z" transform="matrix(1.83697e-16 1 1 -1.83697e-16 901.5 380.5)"/><text font-family="Source Han Sans CN,Source Han Sans CN_MSFontService,sans-serif" font-weight="400" font-size="83" transform="matrix(1 0 0 1 951.928 539)">VPN[2]</text><text font-family="Source Han Sans CN,Source Han Sans CN_MSFontService,sans-serif" font-weight="400" font-size="83" transform="matrix(1 0 0 1 951.928 929)">VPN[1]</text><text font-family="Source Han Sans CN,Source Han Sans CN_MSFontService,sans-serif" font-weight="400" font-size="83" transform="matrix(1 0 0 1 951.928 1319)">VPN[0]</text><text font-family="Source Han Sans CN,Source Han Sans CN_MSFontService,sans-serif" font-weight="400" font-size="83" transform="matrix(1 0 0 1 960.751 1709)">offset</text><rect x="719.5" y="1965.5" width="364" height="104" stroke="#024059" stroke-width="6.875" stroke-miterlimit="8" fill="#0F9ED5"/><text fill="#FFFFFF" font-family="Source Han Sans CN,Source Han Sans CN_MSFontService,sans-serif" font-weight="400" font-size="83" transform="matrix(1 0 0 1 821.603 2047)">HPA</text><path d="M0 3.4375-82.4877 3.4375-79.0502 0-79.0502 168.915-82.4877 165.477 2550.18 165.477 2550.18 210.968 2543.3 210.968 2543.3 168.915 2546.74 172.352-85.9252 172.352-85.9252-3.4375 0-3.4375ZM2560.49 206.384 2546.74 233.884 2532.99 206.384Z" transform="matrix(-1 0 0 1 3448.24 1731.5)"/><text font-family="Source Han Sans CN,Source Han Sans CN_MSFontService,sans-serif" font-weight="400" font-size="83" transform="matrix(1 0 0 1 1949.03 357)">用于支持</text><text font-family="Source Han Sans CN,Source Han Sans CN_MSFontService,sans-serif" font-weight="400" font-size="83" transform="matrix(1 0 0 1 2297.37 357)">VS </text><text font-family="Source Han Sans CN,Source Han Sans CN_MSFontService,sans-serif" font-weight="400" font-size="83" transform="matrix(1 0 0 1 2411.61 357)">阶段翻译的</text><text font-family="Source Han Sans CN,Source Han Sans CN_MSFontService,sans-serif" font-weight="400" font-size="83" transform="matrix(1 0 0 1 2842.44 357)">G </text><text font-family="Source Han Sans CN,Source Han Sans CN_MSFontService,sans-serif" font-weight="400" font-size="83" transform="matrix(1 0 0 1 2917.49 357)">阶段地址翻译</text><path d="M1680.5 250.5 1680.5 1835.72" stroke="#000000" stroke-width="6.875" stroke-miterlimit="8" stroke-dasharray="27.5 20.625" fill="none" fill-rule="evenodd"/><path d="M667.5 1835.5 1681 1835.5" stroke="#000000" stroke-width="6.875" stroke-miterlimit="8" stroke-dasharray="27.5 20.625" fill="none" fill-rule="evenodd"/><path d="M1992.5 1624.06 2073.53 1624.06 2073.53 1630.94 1992.5 1630.94ZM2068.95 1613.75 2096.45 1627.5 2068.95 1641.25Z"/><text font-family="Source Han Sans CN,Source Han Sans CN_MSFontService,sans-serif" font-weight="400" font-size="83" transform="matrix(1 0 0 1 1738.25 1657)">hgatp</text><text font-family="Source Han Sans CN,Source Han Sans CN_MSFontService,sans-serif" font-weight="400" font-size="83" writing-mode="tb-rl" transform="matrix(1 2.95822e-25 -2.95822e-25 1 734.203 468)" x="36.188" y="9.96">第一阶段</text><text font-family="Source Han Sans CN,Source Han Sans CN_MSFontService,sans-serif" font-weight="400" font-size="83" writing-mode="tb-rl" transform="matrix(1 2.95822e-25 -2.95822e-25 1 734.203 817)" x="36.188" y="9.96">（</text><text font-family="Source Han Sans CN,Source Han Sans CN_MSFontService,sans-serif" font-weight="400" font-size="83" transform="matrix(6.12323e-17 1 -1 6.12323e-17 734.203 899)">VS </text><text font-family="Source Han Sans CN,Source Han Sans CN_MSFontService,sans-serif" font-weight="400" font-size="83" writing-mode="tb-rl" transform="matrix(1 2.95822e-25 -2.95822e-25 1 734.203 1013)" x="36.188" y="9.96">阶段）地址翻译</text><text font-family="Source Han Sans CN,Source Han Sans CN_MSFontService,sans-serif" font-weight="400" font-size="83" transform="matrix(1 0 0 1 2135.24 2047)">第二阶段（</text><text font-family="Source Han Sans CN,Source Han Sans CN_MSFontService,sans-serif" font-weight="400" font-size="83" transform="matrix(1 0 0 1 2547.74 2047)">G </text><text font-family="Source Han Sans CN,Source Han Sans CN_MSFontService,sans-serif" font-weight="400" font-size="83" transform="matrix(1 0 0 1 2622.79 2047)">阶段）地址翻译</text></g></svg>